<svg width="224" height="58" viewBox="0 0 224 58" fill="none" xmlns="http://www.w3.org/2000/svg">
    <g id="Frame 1">
        <rect width="224" height="58" fill="white"/>
        <g id="left-side-logo" class="show-on-scroll">
            <line id="Line 1" y1="-0.5" x2="18.404" y2="-0.5" transform="matrix(0.654962 -0.755662 0.751422 0.659821 10.9102 29.9243)" stroke="black"/>
            <line id="Line 2" y1="-0.5" x2="18.3958" y2="-0.5" transform="matrix(0.704802 0.709404 -0.704802 0.709404 10 28.9949)" stroke="black"/>
        </g>
        <line id="middle-line-logo" class="show-on-scroll" y1="-0.5" x2="33.1145" y2="-0.5" transform="matrix(0.257251 -0.966345 0.965502 0.260395 25.8911 45)" stroke="black"/>
        <path id="frontend-logo-name" class="show-on-scroll" d="M64.2891 32.209H55.9355V41H53.3105V21.0938H65.6426V23.2539H55.9355V30.0625H64.2891V32.209ZM76.0879 32.9473H71.4121V41H68.7734V21.0938H75.3633C77.6055 21.0938 79.3281 21.6042 80.5312 22.625C81.7435 23.6458 82.3496 25.1315 82.3496 27.082C82.3496 28.3216 82.0124 29.4017 81.3379 30.3223C80.6725 31.2428 79.7428 31.931 78.5488 32.3867L83.2246 40.8359V41H80.4082L76.0879 32.9473ZM71.4121 30.8008H75.4453C76.7487 30.8008 77.7832 30.4635 78.5488 29.7891C79.3236 29.1146 79.7109 28.2122 79.7109 27.082C79.7109 25.8516 79.3418 24.9082 78.6035 24.252C77.8743 23.5957 76.8171 23.263 75.4316 23.2539H71.4121V30.8008ZM101.354 31.6895C101.354 33.64 101.025 35.3444 100.369 36.8027C99.7129 38.252 98.7832 39.3594 97.5801 40.125C96.377 40.8906 94.9733 41.2734 93.3691 41.2734C91.8014 41.2734 90.4115 40.8906 89.1992 40.125C87.987 39.3503 87.0436 38.252 86.3691 36.8301C85.7038 35.3991 85.362 33.7448 85.3438 31.8672V30.4316C85.3438 28.5176 85.6764 26.8268 86.3418 25.3594C87.0072 23.8919 87.946 22.7708 89.1582 21.9961C90.3796 21.2122 91.7741 20.8203 93.3418 20.8203C94.9368 20.8203 96.3405 21.2077 97.5527 21.9824C98.7741 22.748 99.7129 23.8646 100.369 25.332C101.025 26.7904 101.354 28.4902 101.354 30.4316V31.6895ZM98.7422 30.4043C98.7422 28.0436 98.2682 26.2344 97.3203 24.9766C96.3724 23.7096 95.0462 23.0762 93.3418 23.0762C91.6829 23.0762 90.375 23.7096 89.418 24.9766C88.4701 26.2344 87.9824 27.9844 87.9551 30.2266V31.6895C87.9551 33.9772 88.4336 35.7773 89.3906 37.0898C90.3568 38.3932 91.6829 39.0449 93.3691 39.0449C95.0645 39.0449 96.377 38.4297 97.3066 37.1992C98.2363 35.9596 98.7148 34.1868 98.7422 31.8809V30.4043ZM120.59 41H117.951L107.93 25.6602V41H105.291V21.0938H107.93L117.979 36.502V21.0938H120.59V41ZM138.596 23.2539H132.197V41H129.586V23.2539H123.201V21.0938H138.596V23.2539ZM152.801 31.7988H144.174V38.8535H154.195V41H141.549V21.0938H154.059V23.2539H144.174V29.6523H152.801V31.7988ZM172.762 41H170.123L160.102 25.6602V41H157.463V21.0938H160.102L170.15 36.502V21.0938H172.762V41ZM177.424 41V21.0938H183.043C184.775 21.0938 186.306 21.4766 187.637 22.2422C188.967 23.0078 189.993 24.097 190.713 25.5098C191.442 26.9225 191.811 28.5449 191.82 30.377V31.6484C191.82 33.526 191.456 35.1712 190.727 36.584C190.007 37.9967 188.972 39.0814 187.623 39.8379C186.283 40.5944 184.72 40.9818 182.934 41H177.424ZM180.049 23.2539V38.8535H182.811C184.834 38.8535 186.406 38.2246 187.527 36.9668C188.658 35.709 189.223 33.918 189.223 31.5938V30.4316C189.223 28.1712 188.689 26.4167 187.623 25.168C186.566 23.9102 185.062 23.2721 183.111 23.2539H180.049Z" fill="black"/>
        <g id="right-side-logo" class="show-on-scroll">
            <line id="Line 1_2" y1="-0.5" x2="18.404" y2="-0.5" transform="matrix(-0.654962 -0.755662 -0.751422 0.659821 47.0898 30.1072)" stroke="black"/>
            <line id="Line 2_2" y1="-0.5" x2="18.3958" y2="-0.5" transform="matrix(-0.704802 0.709404 0.704802 0.709404 48 29.1777)" stroke="black"/>
        </g>
    </g>
</svg>
